<svg width="486" height="52" viewBox="0 0 486 52" fill="none" xmlns="http://www.w3.org/2000/svg">
<mask id="mask0_204_91" style="mask-type:luminance" maskUnits="userSpaceOnUse" x="0" y="0" width="486" height="52">
<path d="M485.565 0H0V52H485.565V0Z" fill="white"/>
</mask>
<g mask="url(#mask0_204_91)">
<mask id="mask1_204_91" style="mask-type:luminance" maskUnits="userSpaceOnUse" x="0" y="0" width="486" height="52">
<path d="M485.565 0H0V52H485.565V0Z" fill="white"/>
</mask>
<g mask="url(#mask1_204_91)">
<path d="M208.196 31.8778V31.8671H202.764C200.697 31.8671 198.741 31.049 197.254 29.5622C196.799 29.1069 196.408 28.6089 196.084 28.0753H208.676C214.161 28.0753 218.621 23.6148 218.621 18.1299C218.621 12.645 214.161 8.1845 208.676 8.1845V8.17383H202.593V8.18806C198.439 8.2343 194.529 9.88119 191.563 12.8477C188.557 15.857 186.9 19.8337 186.9 24.0488C186.9 28.2638 188.557 32.2441 191.563 35.2498C194.405 38.0919 198.118 39.7246 202.077 39.8953V39.9131H208.199H218.621C217.408 35.2925 213.197 31.8742 208.199 31.8742M197.251 18.539C198.737 17.0521 200.694 16.234 202.76 16.234V16.2234H208.669V16.2305C209.697 16.2305 210.564 17.0984 210.564 18.1264C210.564 19.1543 209.697 20.0222 208.669 20.0222H196.077C196.4 19.4887 196.795 18.9907 197.247 18.5354" fill="white"/>
<path d="M178.413 31.8246C176.937 31.8246 175.688 30.5761 175.688 29.0999V16.1702H178.413V16.1595C183.41 16.1595 187.618 12.7412 188.835 8.12066H175.685V0C171.164 1.18804 167.799 5.24304 167.653 10.0948H167.642V29.0999C167.642 35.0402 172.476 39.8741 178.416 39.8741C178.48 39.8741 188.842 39.8528 188.842 39.8528C187.636 35.2216 183.417 31.8246 178.416 31.8246" fill="white"/>
<path d="M161.154 8.12402V8.14537C156.936 8.14537 152.959 9.80293 149.953 12.8086C146.976 15.7858 145.325 19.7163 145.293 23.8887V39.9024H153.343V24.0097C153.343 21.943 154.161 19.9867 155.648 18.4998C157.135 17.013 159.091 16.1949 161.158 16.1949L164.885 16.1735V8.12402H161.158H161.154Z" fill="white"/>
<path d="M63.5673 20.0403H51.726C50.6874 20.0403 49.8088 19.1617 49.8088 18.1231C49.8088 17.0844 50.6874 16.2058 51.726 16.2058H63.1689C68.1274 16.1809 72.2998 12.7804 73.4985 8.19189H51.7224C46.2446 8.19189 41.7913 12.6488 41.7913 18.1231C41.7913 23.5973 46.2482 28.0543 51.726 28.0543H63.5673C64.606 28.0543 65.4845 28.9328 65.4845 29.9715C65.4845 31.0101 64.606 31.8887 63.5673 31.8887L51.3916 31.9172C46.7604 32.2515 42.9331 35.5382 41.7913 39.9027H63.5673C69.0451 39.9027 73.4985 35.4457 73.4985 29.9715C73.4985 24.4973 69.0415 20.0403 63.5637 20.0403" fill="white"/>
<path d="M103.324 12.8727C100.319 9.86348 96.3383 8.20947 92.1232 8.20947H76.2803V51.9999C80.9044 50.7905 84.3298 46.5754 84.3298 41.5778V39.9416H92.1232C96.3383 39.9416 100.319 38.284 103.324 35.2784C106.33 32.2727 107.988 28.2924 107.988 24.0773C107.988 19.8623 106.33 15.882 103.324 12.8763M97.633 29.5836C96.1462 31.0704 94.1898 31.8885 92.1232 31.8885H84.3298V16.2554H92.1232C94.1898 16.2554 96.1462 17.0736 97.633 18.5604C99.1199 20.0472 99.938 22.0036 99.938 24.0702C99.938 26.1368 99.1199 28.0932 97.633 29.58" fill="white"/>
<path d="M28.104 24.2199C33.1727 24.0812 37.4447 20.7518 38.9884 16.1704H11.8093C5.29284 16.206 0 21.5166 0 28.0402C0 34.5637 5.27505 39.8566 11.7808 39.9028H27.7732H38.992C37.4483 35.3214 33.1763 31.992 28.1075 31.8533H11.8698C9.79958 31.8533 8.05308 30.1068 8.05308 28.0366C8.05308 25.9664 9.79958 24.2199 11.8698 24.2199H28.1111H28.104Z" fill="white"/>
<path d="M25.6603 0.074707C20.5916 0.213431 16.3196 3.5428 14.7759 8.12423H37.5443C42.6131 7.98551 46.8851 4.6597 48.4288 0.074707H25.6603Z" fill="white"/>
<path d="M243.481 20.0403H231.64C230.601 20.0403 229.723 19.1617 229.723 18.1231C229.723 17.0844 230.601 16.2058 231.64 16.2058H243.083C248.041 16.1809 252.214 12.7804 253.416 8.19189H231.64C226.162 8.19189 221.709 12.6488 221.709 18.1231C221.709 23.5973 226.166 28.0543 231.64 28.0543H243.481C244.52 28.0543 245.398 28.9328 245.398 29.9715C245.398 31.0101 244.52 31.8887 243.481 31.8887L231.305 31.9172C226.674 32.2515 222.847 35.5382 221.705 39.9027H243.481C248.959 39.9027 253.412 35.4457 253.412 29.9715C253.412 24.4973 248.955 20.0403 243.478 20.0403" fill="white"/>
<path d="M126.672 40.2973C124.481 40.2973 122.354 39.8669 120.352 39.0204C118.417 38.2022 116.681 37.032 115.19 35.5416C113.7 34.0512 112.53 32.3154 111.712 30.3804C110.865 28.3742 110.435 26.2471 110.435 24.0596C110.435 21.872 110.865 19.7413 111.712 17.7387C112.53 15.8037 113.7 14.0679 115.19 12.5775C116.681 11.0871 118.417 9.91686 120.352 9.09875C122.358 8.25218 124.481 7.82178 126.672 7.82178C128.863 7.82178 130.991 8.25218 132.993 9.09875C134.928 9.91686 136.664 11.0871 138.154 12.5775C139.645 14.0679 140.815 15.8037 141.633 17.7387C142.48 19.7449 142.91 21.8684 142.91 24.0596C142.91 26.2507 142.48 28.3778 141.633 30.3804C140.815 32.3154 139.645 34.0512 138.154 35.5416C136.664 37.032 134.928 38.2022 132.993 39.0204C130.987 39.8669 128.863 40.2973 126.672 40.2973ZM126.672 16.2555C122.368 16.2555 118.868 19.7556 118.868 24.0596C118.868 28.3635 122.368 31.8636 126.672 31.8636C130.976 31.8636 134.476 28.3635 134.476 24.0596C134.476 19.7556 130.976 16.2555 126.672 16.2555Z" fill="white"/>
<path d="M364.164 16.0103H348.886V16.0032C346.805 16.0032 345.045 14.2425 345.045 12.1616C345.045 10.0807 346.805 8.32003 348.886 8.32003H366.223C371.146 8.32003 375.272 4.84482 376.282 0.220703H348.883C342.299 0.220703 336.942 5.57757 336.942 12.1616C336.942 18.7456 342.299 24.1025 348.883 24.1025H364.085C366.166 24.1025 367.927 25.8632 367.927 27.9476C367.927 30.032 366.17 31.7892 364.085 31.7892H346.997C342.075 31.7892 337.948 35.2644 336.938 39.8885H364.089C370.673 39.8885 376.03 34.5317 376.03 27.9476C376.03 21.3636 370.712 16.0494 364.164 16.0067" fill="white"/>
<path d="M475.21 31.8568V31.8461H469.81C467.758 31.8461 465.812 31.0316 464.333 29.5554C463.881 29.1037 463.493 28.6057 463.166 28.0792H475.679C481.129 28.0792 485.564 23.6472 485.564 18.1943C485.564 12.7414 481.132 8.30936 475.679 8.30936V8.30225H469.636V8.31647C465.51 8.35916 461.622 9.99894 458.673 12.9477C455.685 15.9356 454.039 19.891 454.039 24.0812C454.039 28.2713 455.685 32.2267 458.673 35.2146C461.498 38.0389 465.186 39.6644 469.124 39.8316V39.8494H475.206H485.561C484.355 35.2573 480.168 31.8604 475.206 31.8604M464.333 18.6034C465.809 17.1272 467.754 16.3126 469.81 16.3126V16.302H475.683V16.3091C476.704 16.3091 477.568 17.1734 477.568 18.1943C477.568 19.2152 476.704 20.0795 475.683 20.0795H463.169C463.493 19.5495 463.881 19.0551 464.336 18.6034" fill="white"/>
<path d="M445.609 31.8389C444.14 31.8389 442.902 30.5975 442.902 29.132V16.2841H445.609V16.2734C450.574 16.2734 454.757 12.8765 455.963 8.28438H442.895V0.209961C438.402 1.39089 435.055 5.42099 434.913 10.2443H434.902V29.132C434.902 35.0367 439.704 39.8387 445.609 39.8387C445.673 39.8387 445.733 39.8422 445.794 39.8493L455.97 39.8173C454.772 35.2145 450.581 31.8389 445.609 31.8389Z" fill="white"/>
<path d="M428.46 8.2666V8.28794C424.27 8.28794 420.315 9.93484 417.327 12.9227C414.367 15.8822 412.728 19.7878 412.696 23.9353V39.8493H420.695V24.0562C420.695 22.0038 421.51 20.0581 422.986 18.5784C424.466 17.1022 426.408 16.2877 428.464 16.2877V16.2663H432.17V8.2666H428.464H428.46Z" fill="white"/>
<path d="M394.192 40.1728C392.015 40.1728 389.902 39.746 387.91 38.903C385.989 38.0884 384.264 36.9253 382.781 35.4456C381.301 33.9658 380.138 32.2407 379.324 30.3164C378.481 28.3244 378.054 26.2116 378.054 24.0347C378.054 21.8578 378.481 19.7449 379.324 17.753C380.135 15.8322 381.298 14.107 382.781 12.6238C384.261 11.144 385.986 9.9809 387.91 9.16634C389.902 8.32333 392.015 7.89648 394.192 7.89648C396.369 7.89648 398.482 8.32333 400.474 9.16634C402.394 9.9809 404.12 11.1405 405.603 12.6238C407.083 14.1035 408.246 15.8286 409.06 17.753C409.903 19.7449 410.33 21.8578 410.33 24.0347C410.33 26.2116 409.903 28.3244 409.06 30.3164C408.249 32.2371 407.086 33.9623 405.603 35.4456C404.123 36.9253 402.398 38.0884 400.474 38.903C398.482 39.746 396.369 40.1728 394.192 40.1728ZM394.192 16.2804C389.916 16.2804 386.434 19.7591 386.434 24.0382C386.434 28.3173 389.913 31.7961 394.192 31.7961C398.471 31.7961 401.95 28.3173 401.95 24.0382C401.95 19.7591 398.471 16.2804 394.192 16.2804Z" fill="white"/>
<path d="M317.62 8.2876H296.004C297.21 12.8797 301.397 16.2767 306.359 16.2767V16.2873H317.617C318.637 16.2873 319.502 17.1517 319.502 18.1725C319.502 19.1934 318.637 20.0578 317.617 20.0578H305.871C300.422 20.0578 295.986 24.4898 295.986 29.9427C295.986 35.3956 300.422 39.8276 305.871 39.8276V39.8348L327.498 39.8276V18.1761C327.498 12.7268 323.062 8.29115 317.617 8.29115M319.505 31.835H305.875V31.8279C304.854 31.8279 303.99 30.9636 303.99 29.9427C303.99 28.9218 304.854 28.0575 305.875 28.0575H319.505V31.835Z" fill="white"/>
<path d="M285.504 8.27009H277.547C273.36 8.27009 269.412 9.91699 266.424 12.9049C263.436 15.8928 261.789 19.8482 261.789 24.0383C261.789 28.2285 263.436 32.1839 266.424 35.1718C269.408 38.1561 273.36 39.803 277.547 39.8066H293.251V0.224121C289.388 1.23431 286.372 4.35382 285.504 8.27365M277.561 31.8069C275.508 31.8069 273.563 30.9923 272.083 29.5161C270.603 28.04 269.792 26.0943 269.792 24.0383C269.792 21.9824 270.607 20.0403 272.083 18.5605C273.559 17.0844 275.505 16.2698 277.561 16.2698H285.255V31.8069H277.561Z" fill="white"/>
</g>
</g>
</svg>
